<svg width="21" height="21" viewBox="0 0 21 21" fill="none" xmlns="http://www.w3.org/2000/svg">
<path d="M11.3481 0.96875C13.1481 0.96875 13.5281 0.98875 14.4481 1.02875C15.5081 1.07875 16.2381 1.24875 16.8681 1.49875C17.5281 1.74875 18.0881 2.09875 18.6381 2.64875C19.1981 3.19875 19.5381 3.75875 19.7981 4.41875C20.0481 5.04875 20.2081 5.77875 20.2581 6.84875C20.3081 7.79875 20.3181 8.16875 20.3181 10.1687V11.7688C20.3181 13.7688 20.3081 14.1388 20.2581 15.0888C20.2424 15.9156 20.0869 16.7338 19.7981 17.5088C19.5381 18.1688 19.1981 18.7288 18.6481 19.2787C18.0881 19.8387 17.5281 20.1787 16.8681 20.4387C16.2381 20.6887 15.5081 20.8488 14.4481 20.8988C13.4981 20.9487 13.1181 20.9587 11.1181 20.9587H9.52813C7.52813 20.9587 7.15813 20.9487 6.19813 20.8988C5.37131 20.8828 4.55312 20.7273 3.77813 20.4387C3.11173 20.1883 2.50778 19.7959 2.00813 19.2887C1.49593 18.7874 1.09996 18.1798 0.848126 17.5088C0.559746 16.7337 0.404229 15.9156 0.388126 15.0888C0.339103 14.0562 0.319095 13.0224 0.328126 11.9888V9.93875C0.328126 8.13875 0.348126 7.75875 0.388126 6.83875C0.438126 5.77875 0.608126 5.04875 0.848126 4.41875C1.10813 3.75875 1.44813 3.19875 2.00813 2.64875C2.5033 2.13618 3.10857 1.74293 3.77813 1.49875C4.55258 1.20696 5.37075 1.04806 6.19813 1.02875C7.11813 0.98875 7.49813 0.96875 9.29813 0.96875H11.3481ZM11.3681 2.76875H9.27813C7.54813 2.76875 7.17813 2.78875 6.27813 2.82875C5.30813 2.86875 4.77813 3.02875 4.42813 3.16875C3.95813 3.34875 3.62813 3.56875 3.27813 3.91875C2.92813 4.26875 2.70813 4.59875 2.52813 5.06875C2.39813 5.41875 2.22813 5.94875 2.18813 6.92875C2.14813 7.82875 2.12813 8.18875 2.12813 9.92875V12.0087C2.12813 13.7487 2.14813 14.1088 2.18813 15.0088C2.22813 15.9788 2.38813 16.5087 2.52813 16.8587C2.70813 17.3287 2.92813 17.6588 3.27813 18.0088C3.62813 18.3588 3.95813 18.5788 4.42813 18.7588C4.77813 18.8988 5.30813 19.0587 6.28813 19.0987C7.25813 19.1487 7.60813 19.1588 9.76813 19.1588H10.8781C13.0481 19.1588 13.3881 19.1487 14.3681 19.0987C15.3381 19.0587 15.8681 18.8988 16.2181 18.7588C16.6881 18.5788 17.0181 18.3588 17.3681 18.0088C17.7181 17.6588 17.9381 17.3287 18.1181 16.8587C18.2581 16.5087 18.4181 15.9788 18.4581 15.0088C18.5081 14.0288 18.5181 13.6888 18.5181 11.5188V10.4187C18.5181 8.24875 18.5081 7.89875 18.4581 6.91875C18.4181 5.94875 18.2581 5.41875 18.1181 5.06875C17.9572 4.63418 17.7009 4.24121 17.3681 3.91875C17.0459 3.58567 16.6529 3.32935 16.2181 3.16875C15.625 2.95192 14.9996 2.83697 14.3681 2.82875C13.3689 2.78102 12.3685 2.76101 11.3681 2.76875ZM10.3281 5.82875C11.69 5.82875 12.9961 6.36976 13.9591 7.33276C14.9221 8.29576 15.4631 9.60186 15.4631 10.9637C15.4631 12.3256 14.9221 13.6317 13.9591 14.5947C12.9961 15.5577 11.69 16.0987 10.3281 16.0987C8.96624 16.0987 7.66013 15.5577 6.69713 14.5947C5.73413 13.6317 5.19313 12.3256 5.19313 10.9637C5.19313 9.60186 5.73413 8.29576 6.69713 7.33276C7.66013 6.36976 8.96624 5.82875 10.3281 5.82875ZM10.3281 7.62875C9.44363 7.62875 8.59536 7.98011 7.96992 8.60555C7.34449 9.23098 6.99313 10.0793 6.99313 10.9637C6.99313 11.8482 7.34449 12.6965 7.96992 13.322C8.59536 13.9474 9.44363 14.2987 10.3281 14.2987C11.2126 14.2987 12.0609 13.9474 12.6863 13.322C13.3118 12.6965 13.6631 11.8482 13.6631 10.9637C13.6631 10.0793 13.3118 9.23098 12.6863 8.60555C12.0609 7.98011 11.2126 7.62875 10.3281 7.62875ZM15.6581 4.42875C15.9764 4.42875 16.2816 4.55518 16.5067 4.78022C16.7317 5.00527 16.8581 5.31049 16.8581 5.62875C16.8581 5.94701 16.7317 6.25223 16.5067 6.47728C16.2816 6.70232 15.9764 6.82875 15.6581 6.82875C15.3399 6.82875 15.0346 6.70232 14.8096 6.47728C14.5846 6.25223 14.4581 5.94701 14.4581 5.62875C14.4581 5.31049 14.5846 5.00527 14.8096 4.78022C15.0346 4.55518 15.3399 4.42875 15.6581 4.42875Z" fill="white"/>
</svg>
