<svg width="20" height="20" viewBox="0 0 20 20" fill="none" xmlns="http://www.w3.org/2000/svg">
<path d="M4.44001 6.20001C4.67893 6.21816 4.91902 6.18677 5.14524 6.10781C5.37146 6.02885 5.57894 5.90401 5.75467 5.74113C5.9304 5.57824 6.07059 5.38082 6.16646 5.16123C6.26234 4.94164 6.31182 4.70462 6.31182 4.46501C6.31182 4.2254 6.26234 3.98838 6.16646 3.76879C6.07059 3.5492 5.9304 3.35177 5.75467 3.18889C5.57894 3.02601 5.37146 2.90117 5.14524 2.82221C4.91902 2.74325 4.67893 2.71186 4.44001 2.73001C4.00261 2.76324 3.5939 2.96045 3.29571 3.28216C2.99751 3.60388 2.83182 4.02635 2.83182 4.46501C2.83182 4.90367 2.99751 5.32614 3.29571 5.64785C3.5939 5.96957 4.00261 6.16678 4.44001 6.20001ZM2.93001 12.28V16.86C2.93001 17.02 2.96001 17.09 3.13001 17.09H5.75001C5.91001 17.09 5.95001 17.03 5.95001 16.88V7.68001C5.95001 7.52001 5.89001 7.48001 5.73001 7.48001H3.16001C2.98001 7.48001 2.94001 7.53001 2.94001 7.71001V12.28M10.68 8.73001V7.70001C10.68 7.52001 10.63 7.47001 10.46 7.48001H8.00001C7.75001 7.48001 7.75001 7.48001 7.75001 7.72001V16.84C7.75001 17.04 7.81001 17.09 7.99001 17.09H10.52C10.77 17.09 10.77 17.09 10.77 16.84V12.25C10.77 11.93 10.8 11.61 10.85 11.3C10.97 10.66 11.27 10.13 11.95 9.96001C12.16 9.91001 12.39 9.90001 12.6 9.90001C13.32 9.91001 13.76 10.25 13.92 10.94C14.01 11.32 14.04 11.73 14.04 12.12C14.05 13.6933 14.05 15.2667 14.04 16.84C14.04 17.03 14.1 17.09 14.29 17.09H16.82C17 17.09 17.07 17.04 17.06 16.85C17.06 15.02 17.08 13.2 17.05 11.38C17.04 10.78 16.95 10.16 16.82 9.57001C16.58 8.51001 15.96 7.73001 14.88 7.43001C14.5 7.33001 14.11 7.30001 13.72 7.25001C13.0765 7.17465 12.4257 7.30412 11.86 7.62001C11.37 7.89001 10.98 8.26001 10.66 8.72001M9.98001 0.0100093L18.51 9.33124e-06C18.7017 -0.00397104 18.8924 0.0298639 19.0711 0.0995813C19.2497 0.169299 19.4129 0.273532 19.5513 0.406328C19.6896 0.539124 19.8005 0.697879 19.8775 0.873526C19.9545 1.04917 19.9961 1.23827 20 1.43001V18.58C20 19.34 19.4 19.97 18.64 20H1.50001C0.80001 20 0.26001 19.62 0.0700097 18.97C0.0303435 18.8335 0.0101442 18.6921 0.0100098 18.55V1.45001C0.0100098 0.650009 0.62001 0.0200093 1.43001 0.0100093H10" fill="white"/>
</svg>
