<svg width="21" height="21" viewBox="0 0 21 21" fill="none" xmlns="http://www.w3.org/2000/svg">
<path d="M10.3281 0.96875C8.00359 0.976987 5.75455 1.79477 3.96765 3.28152C2.18074 4.76827 0.9676 6.83109 0.536786 9.11535C0.105972 11.3996 0.484399 13.7626 1.60701 15.7981C2.72962 17.8336 4.52628 19.4144 6.68811 20.2687C6.58811 19.4787 6.51811 18.2688 6.71811 17.3988L7.88811 12.4288C7.88811 12.4288 7.58811 11.8287 7.58811 10.9487C7.58811 9.55875 8.39811 8.52875 9.40811 8.52875C10.2581 8.52875 10.6781 9.16875 10.6781 9.92875C10.6781 10.7888 10.1281 12.0687 9.83811 13.2587C9.59811 14.2587 10.3381 15.0688 11.3281 15.0688C13.1081 15.0688 14.4681 13.1987 14.4681 10.4987C14.4681 8.09875 12.7481 6.43875 10.2881 6.43875C9.7037 6.41308 9.12015 6.50609 8.57268 6.71217C8.02521 6.91826 7.52518 7.23313 7.10276 7.63779C6.68033 8.04246 6.34429 8.52852 6.1149 9.06664C5.88552 9.60476 5.76754 10.1838 5.76811 10.7688C5.76811 11.6288 6.09811 12.5487 6.50811 13.0487C6.58811 13.1487 6.59811 13.2387 6.56811 13.3387L6.28811 14.4688C6.24811 14.6488 6.13811 14.6988 5.95811 14.6088C4.69811 14.0188 3.91811 12.2088 3.91811 10.7288C3.91811 7.57875 6.21811 4.68875 10.5381 4.68875C13.9981 4.68875 16.7081 7.14875 16.7081 10.4587C16.7081 13.9087 14.5281 16.6787 11.5081 16.6787C10.5081 16.6787 9.54811 16.1487 9.22811 15.5287L8.59811 17.8988C8.30297 18.8264 7.88599 19.7108 7.35811 20.5287C8.73194 20.9503 10.1805 21.0708 11.6051 20.882C13.0297 20.6933 14.3969 20.1997 15.6135 19.4349C16.8301 18.6701 17.8677 17.6521 18.6554 16.4502C19.4431 15.2482 19.9625 13.8906 20.1782 12.4699C20.394 11.0491 20.3009 9.59854 19.9055 8.21697C19.5101 6.83539 18.8215 5.55528 17.8867 4.46381C16.9519 3.37234 15.7929 2.49517 14.4885 1.89205C13.1842 1.28892 11.7651 0.974003 10.3281 0.96875Z" fill="white"/>
</svg>
