<svg width="24" height="17" viewBox="0 0 24 17" fill="none" xmlns="http://www.w3.org/2000/svg">
<path d="M9.35812 12.3488V5.58875L15.2981 8.96875L9.35812 12.3488ZM22.5581 3.46875C22.4307 2.98647 22.1789 2.54608 21.8279 2.1916C21.477 1.83713 21.0391 1.58097 20.5581 1.44875C18.7881 0.96875 11.6781 0.96875 11.6781 0.96875C11.6781 0.96875 4.57812 0.96875 2.80813 1.44875C2.32714 1.58097 1.88928 1.83713 1.53831 2.1916C1.18734 2.54608 0.935556 2.98647 0.808125 3.46875C0.328125 5.24875 0.328125 8.96875 0.328125 8.96875C0.328125 8.96875 0.328125 12.6888 0.798125 14.4688C0.926424 14.9522 1.17971 15.3934 1.53253 15.748C1.88536 16.1026 2.32529 16.3581 2.80813 16.4888C4.57812 16.9688 11.6881 16.9688 11.6881 16.9688C11.6881 16.9688 18.7881 16.9688 20.5581 16.4888C21.0391 16.3565 21.477 16.1004 21.8279 15.7459C22.1789 15.3914 22.4307 14.951 22.5581 14.4688C23.0381 12.6888 23.0381 8.96875 23.0381 8.96875C23.0381 8.96875 23.0381 5.24875 22.5681 3.46875H22.5581Z" fill="white"/>
</svg>
